<svg xmlns="http://www.w3.org/2000/svg" viewBox="0 0 512 512">
  <defs>
    <linearGradient id="bg" x1="0" y1="0" x2="1" y2="1">
      <stop offset="0%" stop-color="#1a1610"/>
      <stop offset="100%" stop-color="#252017"/>
    </linearGradient>
    <linearGradient id="gold" x1="0" y1="0" x2="1" y2="1">
      <stop offset="0%" stop-color="#e8893c"/>
      <stop offset="100%" stop-color="#f0b060"/>
    </linearGradient>
    <linearGradient id="chart" x1="0" y1="1" x2="0" y2="0">
      <stop offset="0%" stop-color="#e8893c" stop-opacity="0.15"/>
      <stop offset="100%" stop-color="#e8893c" stop-opacity="0.5"/>
    </linearGradient>
  </defs>
  <rect width="512" height="512" rx="108" fill="url(#bg)"/>
  <rect x="16" y="16" width="480" height="480" rx="96" fill="none" stroke="#3d3428" stroke-width="2"/>
  <path d="M100 380 L180 320 L260 340 L340 240 L420 160 L420 380 Z" fill="url(#chart)" opacity="0.5"/>
  <polyline points="100,380 180,320 260,340 340,240 420,160" fill="none" stroke="url(#gold)" stroke-width="8" stroke-linecap="round" stroke-linejoin="round"/>
  <circle cx="100" cy="380" r="10" fill="#e8893c"/>
  <circle cx="180" cy="320" r="10" fill="#e8893c"/>
  <circle cx="260" cy="340" r="10" fill="#e8893c"/>
  <circle cx="340" cy="240" r="10" fill="#e8893c"/>
  <circle cx="420" cy="160" r="10" fill="#f0b060"/>
  <line x1="80" y1="140" x2="80" y2="400" stroke="#5a4a38" stroke-width="4" stroke-linecap="round"/>
  <line x1="80" y1="400" x2="440" y2="400" stroke="#5a4a38" stroke-width="4" stroke-linecap="round"/>
  <line x1="75" y1="200" x2="85" y2="200" stroke="#5a4a38" stroke-width="3"/>
  <line x1="75" y1="280" x2="85" y2="280" stroke="#5a4a38" stroke-width="3"/>
  <line x1="75" y1="360" x2="85" y2="360" stroke="#5a4a38" stroke-width="3"/>
  <line x1="180" y1="395" x2="180" y2="405" stroke="#5a4a38" stroke-width="3"/>
  <line x1="260" y1="395" x2="260" y2="405" stroke="#5a4a38" stroke-width="3"/>
  <line x1="340" y1="395" x2="340" y2="405" stroke="#5a4a38" stroke-width="3"/>
  <text x="54" y="175" text-anchor="middle" font-size="36" font-weight="800" fill="#e8893c" font-family="-apple-system, Arial, sans-serif">$</text>
  <text x="256" y="475" text-anchor="middle" font-size="68" font-weight="800" fill="url(#gold)" font-family="-apple-system, Arial, sans-serif">ECON</text>
</svg>
